#!OML:ASF I:\Actors\actors\Patient Classification 2\Patient 1\Session 1\actor1.ASF
:FULLY-SPECIFIED
:DEGREES
89
root -1.01971 18.1622 5.66092 0.0952582 -2.83729 -5.49073
lowerback 3.7185 0.336818 2.57271
upperback -1.24713 0.649205 2.18333
thorax -3.36817 0.292503 0.763339
lowerneck -8.26147 -1.10665 -2.85808
upperneck 16.1385 -1.80543 4.24392
head 6.31719 -0.715935 1.68207
rclavicle -3.02603e-015 -2.28851e-014
rhumerus -45.6512 -3.85671 -85.4375
rradius 40.6221
rwrist 20.8315
rhand -6.07187 -28.4288
rfingers 7.12502
rthumb 19.7633 -57.4441
lclavicle -3.02603e-015 -2.28851e-014
lhumerus -41.0236 7.4252 88.0218
lradius 36.6468
lwrist -12.0886
lhand -0.957843 -24.7155
lfingers 7.12502
lthumb 24.6726 3.71393
rfemur 0 0 0
rtibia 0
rfoot 0 0
rtoes 0
lfemur 17.9569 -8.17369 -11.7486
ltibia -19.1707
lfoot -4.36263 23.7572
ltoes -9.47254
90
root -1.02024 18.1628 5.66215 0.145704 -2.83904 -5.50884
lowerback 3.67172 0.335072 2.59084
upperback -1.24098 0.645348 2.17638
thorax -3.33516 0.290417 0.746524
lowerneck -8.25731 -1.07647 -2.78686
upperneck 16.1243 -1.76792 4.20595
head 6.30967 -0.696586 1.66101
rclavicle 7.33154e-015 3.03768e-014
rhumerus -45.6512 -3.85819 -85.5086
rradius 40.6309
rwrist 20.8013
rhand -6.13902 -28.3355
rfingers 7.12502
rthumb 19.6987 -57.3575
lclavicle 7.33154e-015 3.03768e-014
lhumerus -41.0362 7.33365 88.074
lradius 36.6856
lwrist -11.9668
lhand -0.865592 -24.6566
lfingers 7.12502
lthumb 24.761 3.76067
rfemur 0 0 0
rtibia 0
rfoot 0 0
rtoes 0
lfemur 17.9192 -8.13171 -11.7119
ltibia -19.2018
lfoot -4.3484 23.7292
ltoes -9.35042
91
root -1.02059 18.162 5.66302 0.166444 -2.85563 -5.53292
lowerback 3.65351 0.332392 2.6152
upperback -1.22325 0.641671 2.17938
thorax -3.30638 0.288415 0.73631
lowerneck -8.29534 -1.03726 -2.77464
upperneck 16.1949 -1.72013 4.22087
head 6.33688 -0.670689 1.66785
rclavicle 9.45023e-015 -1.49585e-014
rhumerus -45.6671 -3.7979 -85.5726
rradius 40.6948
rwrist 20.7134
rhand -6.01641 -28.2922
rfingers 7.12502
rthumb 19.8166 -57.302
lclavicle 9.45023e-015 -1.49585e-014
lhumerus -41.0242 7.31877 88.1093
lradius 36.6808
lwrist -11.9485
lhand -0.837513 -24.7455
lfingers 7.12502
lthumb 24.7879 3.66808
rfemur 0 0 0
rtibia 0
rfoot 0 0
rtoes 0
lfemur 17.9123 -8.08092 -11.6761
ltibia -19.2167
lfoot -4.30741 23.7007
ltoes -9.41577
92
root -1.02069 18.1615 5.66404 0.167294 -2.86818 -5.53797
lowerback 3.67389 0.338682 2.61902
upperback -1.21583 0.651207 2.18995
thorax -3.31026 0.293194 0.744338
lowerneck -8.34025 -1.03327 -2.82344
upperneck 16.3593 -1.71775 4.25571
head 6.39741 -0.668269 1.68817
rclavicle 1.28123e-016 -3.72721e-017
rhumerus -45.7761 -3.68328 -85.5983
rradius 40.893
rwrist 20.5288
rhand -5.64775 -28.2528
rfingers 7.12502
rthumb 20.1709 -57.2256
lclavicle 1.28123e-016 -3.72721e-017
lhumerus -41.0076 7.34055 88.1634
lradius 36.6395
lwrist -11.9661
lhand -0.817419 -24.7815
lfingers 7.12502
lthumb 24.8072 3.62939
rfemur 0 0 0
rtibia 0
rfoot 0 0
rtoes 0
lfemur 17.9303 -8.04715 -11.6683
ltibia -19.241
lfoot -4.29914 23.6872
ltoes -9.37585
93
root -1.02055 18.1624 5.66476 0.181756 -2.86183 -5.54955
lowerback 3.67041 0.355787 2.64018
upperback -1.19825 0.674568 2.1978
thorax -3.28988 0.304716 0.739103
lowerneck -8.37819 -1.06776 -2.8879
upperneck 16.5231 -1.76536 4.28792
head 6.45869 -0.691275 1.70629
rclavicle -4.11915e-015 6.88292e-015
rhumerus -45.9322 -3.64723 -85.5806
rradius 41.217
rwrist 20.3253
rhand -5.46097 -28.1566
rfingers 7.12502
rthumb 20.3505 -57.1103
lclavicle -4.11915e-015 6.88292e-015
lhumerus -40.9477 7.32444 88.2422
lradius 36.5748
lwrist -11.9421
lhand -0.745846 -24.7562
lfingers 7.12502
lthumb 24.8758 3.64522
rfemur 0 0 0
rtibia 0
rfoot 0 0
rtoes 0
lfemur 17.9332 -8.05633 -11.6542
ltibia -19.2765
lfoot -4.29928 23.6968
ltoes -9.29593
94
root -1.02077 18.1625 5.66493 0.183918 -2.85526 -5.58786
lowerback 3.68626 0.385068 2.68631
upperback -1.16084 0.71572 2.21112
thorax -3.25959 0.324819 0.724288
lowerneck -8.40311 -1.09155 -2.92264
upperneck 16.6548 -1.80087 4.31391
head 6.50684 -0.707391 1.71828
rclavicle 3.10601e-018 -4.33599e-015
rhumerus -46.1188 -3.63961 -85.5535
rradius 41.7016
rwrist 19.9723
rhand -5.62381 -28.1705
rfingers 7.12502
rthumb 20.1939 -57.1408
lclavicle 3.10601e-018 -4.33599e-015
lhumerus -40.8516 7.25989 88.3423
lradius 36.5171
lwrist -11.9293
lhand -0.631759 -24.7793
lfingers 7.12502
lthumb 24.9851 3.60704
rfemur 0 0 0
rtibia 0
rfoot 0 0
rtoes 0
lfemur 17.9496 -8.08463 -11.6153
ltibia -19.3026
lfoot -4.2812 23.7211
ltoes -9.38865
95
root -1.02096 18.1619 5.6652 0.171382 -2.82896 -5.61587
lowerback 3.7213 0.404243 2.7188
upperback -1.12797 0.743536 2.21838
thorax -3.24494 0.33836 0.71159
lowerneck -8.41685 -1.08178 -2.97442
upperneck 16.8573 -1.80429 4.41896
head 6.57511 -0.702414 1.76164
rclavicle 4.02694e-015 3.48867e-014
rhumerus -46.3584 -3.56249 -85.5614
rradius 42.3867
rwrist 19.3594
rhand -6.22777 -27.6906
rfingers 7.12502
rthumb 19.6134 -56.7212
lclavicle 4.02694e-015 3.48867e-014
lhumerus -40.7721 7.18983 88.4359
lradius 36.4846
lwrist -11.9327
lhand -0.580661 -24.7677
lfingers 7.12502
lthumb 25.0341 3.61175
rfemur 0 0 0
rtibia 0
rfoot 0 0
rtoes 0
lfemur 17.9764 -8.08586 -11.5856
ltibia -19.3293
lfoot -4.23526 23.709
ltoes -9.51173
96
root -1.02021 18.1617 5.66554 0.152498 -2.78248 -5.60039
lowerback 3.74553 0.401748 2.71076
upperback -1.1033 0.739975 2.21694
thorax -3.2332 0.336951 0.714677
lowerneck -8.48554 -1.08348 -3.09056
upperneck 17.2632 -1.82329 4.54371
head 6.7195 -0.705563 1.82228
rclavicle 7.72717e-015 -3.32964e-015
rhumerus -46.6325 -3.41766 -85.5972
rradius 43.1558
rwrist 18.7926
rhand -7.18011 -26.6311
rfingers 7.12502
rthumb 18.6976 -55.7524
lclavicle 7.72717e-015 -3.32964e-015
lhumerus -40.7162 7.18543 88.5064
lradius 36.46
lwrist -11.9714
lhand -0.632497 -24.7136
lfingers 7.12502
lthumb 24.9844 3.67285
rfemur 0 0 0
rtibia 0
rfoot 0 0
rtoes 0
lfemur 18.0018 -8.08953 -11.6051
ltibia -19.3635
lfoot -4.18621 23.6816
ltoes -9.52683
97
root -1.0196 18.162 5.66541 0.146057 -2.72138 -5.59233
lowerback 3.74546 0.388124 2.72279
upperback -1.08234 0.721386 2.20813
thorax -3.21137 0.327654 0.700075
lowerneck -8.70001 -1.11398 -3.0301
upperneck 17.9244 -1.86424 4.3869
head 6.96987 -0.728079 1.76223
rclavicle 8.0731e-015 1.91206e-014
rhumerus -46.8848 -3.26831 -85.6629
rradius 43.8412
rwrist 18.3444
rhand -7.51643 -26.1971
rfingers 7.12502
rthumb 18.3741 -55.3493
lclavicle 8.0731e-015 1.91206e-014
lhumerus -40.675 7.25477 88.5182
lradius 36.459
lwrist -12.0976
lhand -0.680735 -24.7381
lfingers 7.12502
lthumb 24.9382 3.65473
rfemur 0 0 0
rtibia 0
rfoot 0 0
rtoes 0
lfemur 18.0059 -8.11026 -11.6144
ltibia -19.3911
lfoot -4.16058 23.6542
ltoes -9.56309
98
root -1.01992 18.1631 5.66486 0.161116 -2.62644 -5.59738
lowerback 3.71702 0.36459 2.75002
upperback -1.06369 0.689023 2.19527
thorax -3.17584 0.31128 0.673836
lowerneck -8.97155 -1.14079 -2.72092
upperneck 18.6664 -1.8822 3.92215
head 7.25285 -0.748723 1.56204
rclavicle 5.38466e-015 1.71576e-014
rhumerus -47.1072 -3.12575 -85.747
rradius 44.4713
rwrist 17.8593
rhand -7.34315 -26.3806
rfingers 7.12502
rthumb 18.5408 -55.517
lclavicle 5.38466e-015 1.71576e-014
lhumerus -40.6444 7.3376 88.5039
lradius 36.4827
lwrist -12.1833
lhand -0.740514 -24.8159
lfingers 7.12502
lthumb 24.8809 3.58485
rfemur 0 0 0
rtibia 0
rfoot 0 0
rtoes 0
lfemur 17.968 -8.12922 -11.5972
ltibia -19.4078
lfoot -4.11776 23.5968
ltoes -9.75392
99
root -1.02067 18.1637 5.664 0.170925 -2.50128 -5.58535
lowerback 3.69534 0.331023 2.76578
upperback -1.03942 0.642689 2.17833
thorax -3.13854 0.28819 0.650632
lowerneck -9.07538 -1.22701 -2.45438
upperneck 19.179 -1.99617 3.59583
head 7.43743 -0.809799 1.40309
rclavicle -5.43193e-015 7.45443e-017
rhumerus -47.3122 -2.95042 -85.8231
rradius 45.0822
rwrist 17.356
rhand -7.25695 -26.4855
rfingers 7.12502
rthumb 18.6237 -55.614
lclavicle -5.43193e-015 7.45443e-017
lhumerus -40.6021 7.37405 88.5111
lradius 36.5069
lwrist -12.1352
lhand -0.835394 -24.8775
lfingers 7.12502
lthumb 24.79 3.53577
rfemur 0 0 0
rtibia 0
rfoot 0 0
rtoes 0
lfemur 17.9094 -8.04705 -11.5785
ltibia -19.411
lfoot -3.96992 23.4124
ltoes -10.1161
100
root -1.02116 18.1637 5.66281 0.169155 -2.38956 -5.55895
lowerback 3.69535 0.30603 2.78106
upperback -1.01023 0.608238 2.15027
thorax -3.10822 0.270888 0.615337
lowerneck -9.10077 -1.30311 -2.33422
upperneck 19.5556 -2.11139 3.48805
head 7.56705 -0.863692 1.33883
rclavicle -1.00284e-014 -4.26766e-014
rhumerus -47.475 -2.75153 -85.9036
rradius 45.5437
rwrist 16.5023
rhand -7.07345 -26.7963
rfingers 7.12502
rthumb 18.8002 -55.9078
lclavicle -1.00284e-014 -4.26766e-014
lhumerus -40.5558 7.35125 88.533
lradius 36.5411
lwrist -12.015
lhand -0.965294 -24.9205
lfingers 7.12502
lthumb 24.6655 3.50987
rfemur 0 0 0
rtibia 0
rfoot 0 0
rtoes 0
lfemur 17.8524 -7.8955 -11.5686
ltibia -19.3988
lfoot -3.81301 23.1693
ltoes -10.3512
101
root -1.02094 18.1643 5.66202 0.161058 -2.32822 -5.51536
lowerback 3.71043 0.297905 2.76355
upperback -0.976225 0.595085 2.11816
thorax -3.08149 0.264775 0.592787
lowerneck -9.21892 -1.21629 -2.3525
upperneck 20.0085 -1.99578 3.47184
head 7.73372 -0.80761 1.34928
rclavicle 4.86878e-015 -1.10683e-014
rhumerus -47.5852 -2.52014 -85.9969
rradius 45.9457
rwrist 15.6579
rhand -5.7552 -28.4845
rfingers 7.12502
rthumb 20.0677 -57.4682
lclavicle 4.86878e-015 -1.10683e-014
lhumerus -40.5382 7.24299 88.5934
lradius 36.6206
lwrist -11.8344
lhand -1.14226 -24.9312
lfingers 7.12502
lthumb 24.4958 3.52219
rfemur 0 0 0
rtibia 0
rfoot 0 0
rtoes 0
lfemur 17.8177 -7.80811 -11.5975
ltibia -19.38
lfoot -3.74369 23.0178
ltoes -10.3596
102
root -1.02066 18.1651 5.66149 0.161574 -2.27698 -5.47919
lowerback 3.71242 0.29127 2.75482
upperback -0.926167 0.583106 2.08202
thorax -3.03068 0.259344 0.561188
lowerneck -9.37216 -1.1371 -2.38661
upperneck 20.3879 -1.89673 3.51312
head 7.88448 -0.755558 1.37977
rclavicle 2.67889e-015 -1.18028e-015
rhumerus -47.6172 -2.38224 -86.0347
rradius 46.5028
rwrist 16.0549
rhand -5.91994 -28.1284
rfingers 7.12502
rthumb 19.9093 -57.1285
lclavicle 2.67889e-015 -1.18028e-015
lhumerus -40.4931 7.09746 88.661
lradius 36.7051
lwrist -11.6886
lhand -1.22661 -24.8415
lfingers 7.12502
lthumb 24.415 3.62288
rfemur 0 0 0
rtibia 0
rfoot 0 0
rtoes 0
lfemur 17.785 -7.74729 -11.6262
ltibia -19.3601
lfoot -3.68805 22.905
ltoes -10.3298
103
root -1.02033 18.1661 5.66078 0.175383 -2.20574 -5.45835
lowerback 3.68386 0.281739 2.75984
upperback -0.862101 0.566423 2.0556
thorax -2.94829 0.251784 0.532332
lowerneck -9.49569 -1.14036 -2.37559
upperneck 20.584 -1.90568 3.50829
head 7.97231 -0.757141 1.37628
rclavicle -7.44258e-015 1.55425e-014
rhumerus -47.5239 -2.35182 -86.0155
rradius 46.5473
rwrist 15.9095
rhand -5.23006 -28.7346
rfingers 7.12502
rthumb 20.5724 -57.6646
lclavicle -7.44258e-015 1.55425e-014
lhumerus -40.3973 7.04851 88.6961
lradius 36.7325
lwrist -11.6525
lhand -1.17214 -24.7354
lfingers 7.12502
lthumb 24.4672 3.72188
rfemur 0 0 0
rtibia 0
rfoot 0 0
rtoes 0
lfemur 17.7342 -7.71456 -11.6382
ltibia -19.3425
lfoot -3.63693 22.8222
ltoes -10.3992
104
root -1.0188 18.1672 5.66069 0.183939 -2.14565 -5.44716
lowerback 3.66575 0.2692 2.75286
upperback -0.809332 0.546547 2.0475
thorax -2.88381 0.242797 0.529187
lowerneck -9.53679 -1.13689 -2.37115
upperneck 20.6247 -1.89265 3.46464
head 7.99251 -0.754104 1.36244
rclavicle 7.13312e-015 -2.03009e-014
rhumerus -47.3912 -2.318 -85.9662
rradius 46.5324
rwrist 16.0719
rhand -6.87448 -26.9779
rfingers 7.12502
rthumb 18.9915 -56.0707
lclavicle 7.13312e-015 -2.03009e-014
lhumerus -40.3435 7.06431 88.719
lradius 36.7395
lwrist -11.6062
lhand -1.12159 -24.7563
lfingers 7.12502
lthumb 24.5157 3.69447
rfemur 0 0 0
rtibia 0
rfoot 0 0
rtoes 0
lfemur 17.7035 -7.70963 -11.6499
ltibia -19.3438
lfoot -3.60807 22.7681
ltoes -10.6898
